<mxfile host="app.diagrams.net" agent="Mozilla/5.0 (Windows NT 10.0; Win64; x64) AppleWebKit/537.36 (KHTML, like Gecko) Chrome/140.0.0.0 Safari/537.36 Edg/140.0.0.0" version="28.1.2" pages="5">
  <diagram name="Page-1" id="FSuWpdoEf_cq-5XR9dwO">
    <mxGraphModel dx="1498" dy="671" grid="1" gridSize="10" guides="1" tooltips="1" connect="1" arrows="1" fold="1" page="1" pageScale="1" pageWidth="850" pageHeight="1100" math="0" shadow="0">
      <root>
        <mxCell id="0" />
        <mxCell id="1" parent="0" />
        <mxCell id="HIdrnJ47NF7oPE4gxQqy-3" style="edgeStyle=orthogonalEdgeStyle;rounded=0;orthogonalLoop=1;jettySize=auto;html=1;" parent="1" source="HIdrnJ47NF7oPE4gxQqy-1" target="HIdrnJ47NF7oPE4gxQqy-2" edge="1">
          <mxGeometry relative="1" as="geometry" />
        </mxCell>
        <mxCell id="HIdrnJ47NF7oPE4gxQqy-1" value="Start" style="ellipse;whiteSpace=wrap;html=1;" parent="1" vertex="1">
          <mxGeometry x="167" y="90" width="120" height="80" as="geometry" />
        </mxCell>
        <mxCell id="HIdrnJ47NF7oPE4gxQqy-5" style="edgeStyle=orthogonalEdgeStyle;rounded=0;orthogonalLoop=1;jettySize=auto;html=1;" parent="1" source="HIdrnJ47NF7oPE4gxQqy-2" target="HIdrnJ47NF7oPE4gxQqy-4" edge="1">
          <mxGeometry relative="1" as="geometry" />
        </mxCell>
        <mxCell id="HIdrnJ47NF7oPE4gxQqy-2" value="&lt;b&gt;&lt;sub&gt;A,B,C&amp;nbsp;&lt;/sub&gt;&lt;/b&gt;" style="shape=parallelogram;perimeter=parallelogramPerimeter;whiteSpace=wrap;html=1;fixedSize=1;" parent="1" vertex="1">
          <mxGeometry x="167.5" y="200" width="120" height="60" as="geometry" />
        </mxCell>
        <mxCell id="HIdrnJ47NF7oPE4gxQqy-7" style="edgeStyle=orthogonalEdgeStyle;rounded=0;orthogonalLoop=1;jettySize=auto;html=1;" parent="1" source="HIdrnJ47NF7oPE4gxQqy-4" target="HIdrnJ47NF7oPE4gxQqy-6" edge="1">
          <mxGeometry relative="1" as="geometry" />
        </mxCell>
        <mxCell id="HIdrnJ47NF7oPE4gxQqy-4" value="Max = A" style="shape=parallelogram;perimeter=parallelogramPerimeter;whiteSpace=wrap;html=1;fixedSize=1;" parent="1" vertex="1">
          <mxGeometry x="167" y="310" width="120" height="60" as="geometry" />
        </mxCell>
        <mxCell id="HIdrnJ47NF7oPE4gxQqy-10" style="edgeStyle=orthogonalEdgeStyle;rounded=0;orthogonalLoop=1;jettySize=auto;html=1;" parent="1" source="HIdrnJ47NF7oPE4gxQqy-6" target="HIdrnJ47NF7oPE4gxQqy-9" edge="1">
          <mxGeometry relative="1" as="geometry" />
        </mxCell>
        <mxCell id="HIdrnJ47NF7oPE4gxQqy-19" style="edgeStyle=orthogonalEdgeStyle;rounded=0;orthogonalLoop=1;jettySize=auto;html=1;entryX=0;entryY=0.5;entryDx=0;entryDy=0;" parent="1" source="HIdrnJ47NF7oPE4gxQqy-6" target="HIdrnJ47NF7oPE4gxQqy-17" edge="1">
          <mxGeometry relative="1" as="geometry" />
        </mxCell>
        <mxCell id="HIdrnJ47NF7oPE4gxQqy-6" value="Max&amp;gt;=B" style="rhombus;whiteSpace=wrap;html=1;" parent="1" vertex="1">
          <mxGeometry x="160" y="390" width="135" height="140" as="geometry" />
        </mxCell>
        <mxCell id="HIdrnJ47NF7oPE4gxQqy-12" style="edgeStyle=orthogonalEdgeStyle;rounded=0;orthogonalLoop=1;jettySize=auto;html=1;" parent="1" source="HIdrnJ47NF7oPE4gxQqy-9" target="HIdrnJ47NF7oPE4gxQqy-11" edge="1">
          <mxGeometry relative="1" as="geometry">
            <Array as="points">
              <mxPoint x="227" y="870" />
              <mxPoint x="227" y="870" />
            </Array>
          </mxGeometry>
        </mxCell>
        <mxCell id="HIdrnJ47NF7oPE4gxQqy-29" style="edgeStyle=orthogonalEdgeStyle;rounded=0;orthogonalLoop=1;jettySize=auto;html=1;" parent="1" source="HIdrnJ47NF7oPE4gxQqy-9" target="HIdrnJ47NF7oPE4gxQqy-28" edge="1">
          <mxGeometry relative="1" as="geometry" />
        </mxCell>
        <mxCell id="HIdrnJ47NF7oPE4gxQqy-9" value="Max &amp;gt;=C" style="rhombus;whiteSpace=wrap;html=1;" parent="1" vertex="1">
          <mxGeometry x="160" y="630" width="135" height="140" as="geometry" />
        </mxCell>
        <mxCell id="HIdrnJ47NF7oPE4gxQqy-15" style="edgeStyle=orthogonalEdgeStyle;rounded=0;orthogonalLoop=1;jettySize=auto;html=1;" parent="1" source="HIdrnJ47NF7oPE4gxQqy-11" edge="1">
          <mxGeometry relative="1" as="geometry">
            <mxPoint x="227" y="1070" as="targetPoint" />
          </mxGeometry>
        </mxCell>
        <mxCell id="HIdrnJ47NF7oPE4gxQqy-11" value="Max =&amp;nbsp;" style="rounded=1;whiteSpace=wrap;html=1;" parent="1" vertex="1">
          <mxGeometry x="167.5" y="880" width="120" height="60" as="geometry" />
        </mxCell>
        <mxCell id="HIdrnJ47NF7oPE4gxQqy-13" value="End" style="ellipse;whiteSpace=wrap;html=1;" parent="1" vertex="1">
          <mxGeometry x="167.5" y="980" width="120" height="80" as="geometry" />
        </mxCell>
        <mxCell id="HIdrnJ47NF7oPE4gxQqy-16" value="Đúng" style="text;html=1;align=center;verticalAlign=middle;resizable=0;points=[];autosize=1;strokeColor=none;fillColor=none;" parent="1" vertex="1">
          <mxGeometry x="230" y="560" width="50" height="30" as="geometry" />
        </mxCell>
        <mxCell id="HIdrnJ47NF7oPE4gxQqy-17" value="Max = B" style="shape=parallelogram;perimeter=parallelogramPerimeter;whiteSpace=wrap;html=1;fixedSize=1;" parent="1" vertex="1">
          <mxGeometry x="410" y="430" width="120" height="60" as="geometry" />
        </mxCell>
        <mxCell id="HIdrnJ47NF7oPE4gxQqy-20" value="Sai" style="text;html=1;align=center;verticalAlign=middle;resizable=0;points=[];autosize=1;strokeColor=none;fillColor=none;" parent="1" vertex="1">
          <mxGeometry x="330" y="430" width="40" height="30" as="geometry" />
        </mxCell>
        <mxCell id="HIdrnJ47NF7oPE4gxQqy-30" style="edgeStyle=orthogonalEdgeStyle;rounded=0;orthogonalLoop=1;jettySize=auto;html=1;" parent="1" source="HIdrnJ47NF7oPE4gxQqy-28" edge="1">
          <mxGeometry relative="1" as="geometry">
            <mxPoint x="230" y="860" as="targetPoint" />
            <Array as="points">
              <mxPoint x="440" y="850" />
              <mxPoint x="230" y="850" />
            </Array>
          </mxGeometry>
        </mxCell>
        <mxCell id="HIdrnJ47NF7oPE4gxQqy-28" value="Max = C" style="shape=parallelogram;perimeter=parallelogramPerimeter;whiteSpace=wrap;html=1;fixedSize=1;" parent="1" vertex="1">
          <mxGeometry x="390" y="670" width="120" height="60" as="geometry" />
        </mxCell>
        <mxCell id="IXlb3_edN1S_KNRtG0Zn-2" style="edgeStyle=orthogonalEdgeStyle;rounded=0;orthogonalLoop=1;jettySize=auto;html=1;" edge="1" parent="1" source="HIdrnJ47NF7oPE4gxQqy-17">
          <mxGeometry relative="1" as="geometry">
            <mxPoint x="230" y="620" as="targetPoint" />
            <Array as="points">
              <mxPoint x="470" y="620" />
              <mxPoint x="277" y="620" />
            </Array>
          </mxGeometry>
        </mxCell>
        <mxCell id="IXlb3_edN1S_KNRtG0Zn-3" value="Sai" style="text;html=1;align=center;verticalAlign=middle;resizable=0;points=[];autosize=1;strokeColor=none;fillColor=none;" vertex="1" parent="1">
          <mxGeometry x="320" y="670" width="40" height="30" as="geometry" />
        </mxCell>
        <mxCell id="IXlb3_edN1S_KNRtG0Zn-4" value="Đúng" style="text;html=1;align=center;verticalAlign=middle;resizable=0;points=[];autosize=1;strokeColor=none;fillColor=none;" vertex="1" parent="1">
          <mxGeometry x="230" y="790" width="50" height="30" as="geometry" />
        </mxCell>
      </root>
    </mxGraphModel>
  </diagram>
  <diagram id="8GPfafitPxsjysR_KIrR" name="Page-2">
    <mxGraphModel dx="692" dy="595" grid="1" gridSize="10" guides="1" tooltips="1" connect="1" arrows="1" fold="1" page="1" pageScale="1" pageWidth="850" pageHeight="1100" math="0" shadow="0">
      <root>
        <mxCell id="0" />
        <mxCell id="1" parent="0" />
        <mxCell id="os_n6HJ1rzbu6yz1EOV9-3" style="edgeStyle=orthogonalEdgeStyle;rounded=0;orthogonalLoop=1;jettySize=auto;html=1;" edge="1" parent="1" source="os_n6HJ1rzbu6yz1EOV9-1" target="os_n6HJ1rzbu6yz1EOV9-2">
          <mxGeometry relative="1" as="geometry" />
        </mxCell>
        <mxCell id="os_n6HJ1rzbu6yz1EOV9-1" value="Start" style="ellipse;whiteSpace=wrap;html=1;" vertex="1" parent="1">
          <mxGeometry x="365" y="60" width="120" height="80" as="geometry" />
        </mxCell>
        <mxCell id="os_n6HJ1rzbu6yz1EOV9-7" style="edgeStyle=orthogonalEdgeStyle;rounded=0;orthogonalLoop=1;jettySize=auto;html=1;" edge="1" parent="1" source="os_n6HJ1rzbu6yz1EOV9-2" target="os_n6HJ1rzbu6yz1EOV9-4">
          <mxGeometry relative="1" as="geometry" />
        </mxCell>
        <mxCell id="os_n6HJ1rzbu6yz1EOV9-2" value="Nhập N" style="shape=parallelogram;perimeter=parallelogramPerimeter;whiteSpace=wrap;html=1;fixedSize=1;" vertex="1" parent="1">
          <mxGeometry x="365" y="220" width="120" height="60" as="geometry" />
        </mxCell>
        <mxCell id="os_n6HJ1rzbu6yz1EOV9-8" style="edgeStyle=orthogonalEdgeStyle;rounded=0;orthogonalLoop=1;jettySize=auto;html=1;" edge="1" parent="1" source="os_n6HJ1rzbu6yz1EOV9-4" target="os_n6HJ1rzbu6yz1EOV9-5">
          <mxGeometry relative="1" as="geometry" />
        </mxCell>
        <mxCell id="os_n6HJ1rzbu6yz1EOV9-11" style="edgeStyle=orthogonalEdgeStyle;rounded=0;orthogonalLoop=1;jettySize=auto;html=1;" edge="1" parent="1" source="os_n6HJ1rzbu6yz1EOV9-4" target="os_n6HJ1rzbu6yz1EOV9-12">
          <mxGeometry relative="1" as="geometry">
            <mxPoint x="570" y="395" as="targetPoint" />
          </mxGeometry>
        </mxCell>
        <mxCell id="os_n6HJ1rzbu6yz1EOV9-4" value="N % 2 = 0" style="rhombus;whiteSpace=wrap;html=1;" vertex="1" parent="1">
          <mxGeometry x="363" y="340" width="125" height="110" as="geometry" />
        </mxCell>
        <mxCell id="os_n6HJ1rzbu6yz1EOV9-15" style="edgeStyle=orthogonalEdgeStyle;rounded=0;orthogonalLoop=1;jettySize=auto;html=1;" edge="1" parent="1" source="os_n6HJ1rzbu6yz1EOV9-5" target="os_n6HJ1rzbu6yz1EOV9-6">
          <mxGeometry relative="1" as="geometry" />
        </mxCell>
        <mxCell id="os_n6HJ1rzbu6yz1EOV9-5" value="Chẵn" style="rounded=1;whiteSpace=wrap;html=1;" vertex="1" parent="1">
          <mxGeometry x="365" y="520" width="120" height="60" as="geometry" />
        </mxCell>
        <mxCell id="os_n6HJ1rzbu6yz1EOV9-6" value="End" style="ellipse;whiteSpace=wrap;html=1;" vertex="1" parent="1">
          <mxGeometry x="365" y="670" width="120" height="80" as="geometry" />
        </mxCell>
        <mxCell id="os_n6HJ1rzbu6yz1EOV9-9" value="T" style="text;html=1;align=center;verticalAlign=middle;resizable=0;points=[];autosize=1;strokeColor=none;fillColor=none;" vertex="1" parent="1">
          <mxGeometry x="435" y="460" width="30" height="30" as="geometry" />
        </mxCell>
        <mxCell id="os_n6HJ1rzbu6yz1EOV9-14" style="edgeStyle=orthogonalEdgeStyle;rounded=0;orthogonalLoop=1;jettySize=auto;html=1;" edge="1" parent="1" source="os_n6HJ1rzbu6yz1EOV9-12">
          <mxGeometry relative="1" as="geometry">
            <mxPoint x="430" y="640" as="targetPoint" />
            <Array as="points">
              <mxPoint x="630" y="640" />
            </Array>
          </mxGeometry>
        </mxCell>
        <mxCell id="os_n6HJ1rzbu6yz1EOV9-12" value="Lẻ" style="rounded=1;whiteSpace=wrap;html=1;" vertex="1" parent="1">
          <mxGeometry x="570" y="365" width="120" height="60" as="geometry" />
        </mxCell>
        <mxCell id="os_n6HJ1rzbu6yz1EOV9-13" value="F" style="text;html=1;align=center;verticalAlign=middle;resizable=0;points=[];autosize=1;strokeColor=none;fillColor=none;" vertex="1" parent="1">
          <mxGeometry x="510" y="395" width="30" height="30" as="geometry" />
        </mxCell>
      </root>
    </mxGraphModel>
  </diagram>
  <diagram id="0Nz9e-f7TrzFtOlNEu4y" name="Page-3">
    <mxGraphModel dx="692" dy="595" grid="1" gridSize="10" guides="1" tooltips="1" connect="1" arrows="1" fold="1" page="1" pageScale="1" pageWidth="850" pageHeight="1100" math="0" shadow="0">
      <root>
        <mxCell id="0" />
        <mxCell id="1" parent="0" />
        <mxCell id="wkG-7RalV-Sknb256kb4-18" style="edgeStyle=orthogonalEdgeStyle;rounded=0;orthogonalLoop=1;jettySize=auto;html=1;" edge="1" parent="1" source="wkG-7RalV-Sknb256kb4-1" target="wkG-7RalV-Sknb256kb4-2">
          <mxGeometry relative="1" as="geometry" />
        </mxCell>
        <mxCell id="wkG-7RalV-Sknb256kb4-1" value="Start" style="ellipse;whiteSpace=wrap;html=1;" vertex="1" parent="1">
          <mxGeometry x="365" y="120" width="120" height="80" as="geometry" />
        </mxCell>
        <mxCell id="wkG-7RalV-Sknb256kb4-17" style="edgeStyle=orthogonalEdgeStyle;rounded=0;orthogonalLoop=1;jettySize=auto;html=1;" edge="1" parent="1" source="wkG-7RalV-Sknb256kb4-2" target="wkG-7RalV-Sknb256kb4-5">
          <mxGeometry relative="1" as="geometry" />
        </mxCell>
        <mxCell id="wkG-7RalV-Sknb256kb4-2" value="Nhập N" style="shape=parallelogram;perimeter=parallelogramPerimeter;whiteSpace=wrap;html=1;fixedSize=1;" vertex="1" parent="1">
          <mxGeometry x="365" y="290" width="120" height="60" as="geometry" />
        </mxCell>
        <mxCell id="wkG-7RalV-Sknb256kb4-7" style="edgeStyle=orthogonalEdgeStyle;rounded=0;orthogonalLoop=1;jettySize=auto;html=1;" edge="1" parent="1" source="wkG-7RalV-Sknb256kb4-5" target="wkG-7RalV-Sknb256kb4-2">
          <mxGeometry relative="1" as="geometry">
            <mxPoint x="220" y="320" as="targetPoint" />
            <Array as="points">
              <mxPoint x="260" y="500" />
              <mxPoint x="260" y="501" />
              <mxPoint x="220" y="501" />
              <mxPoint x="220" y="320" />
            </Array>
          </mxGeometry>
        </mxCell>
        <mxCell id="wkG-7RalV-Sknb256kb4-14" style="edgeStyle=orthogonalEdgeStyle;rounded=0;orthogonalLoop=1;jettySize=auto;html=1;" edge="1" parent="1" source="wkG-7RalV-Sknb256kb4-5" target="wkG-7RalV-Sknb256kb4-8">
          <mxGeometry relative="1" as="geometry" />
        </mxCell>
        <mxCell id="wkG-7RalV-Sknb256kb4-5" value="N &amp;gt; 0" style="rhombus;whiteSpace=wrap;html=1;" vertex="1" parent="1">
          <mxGeometry x="373" y="440" width="105" height="120" as="geometry" />
        </mxCell>
        <mxCell id="wkG-7RalV-Sknb256kb4-6" style="edgeStyle=orthogonalEdgeStyle;rounded=0;orthogonalLoop=1;jettySize=auto;html=1;exitX=0.5;exitY=1;exitDx=0;exitDy=0;entryX=0.658;entryY=0.988;entryDx=0;entryDy=0;entryPerimeter=0;" edge="1" parent="1" source="wkG-7RalV-Sknb256kb4-1" target="wkG-7RalV-Sknb256kb4-1">
          <mxGeometry relative="1" as="geometry" />
        </mxCell>
        <mxCell id="wkG-7RalV-Sknb256kb4-13" style="edgeStyle=orthogonalEdgeStyle;rounded=0;orthogonalLoop=1;jettySize=auto;html=1;" edge="1" parent="1" source="wkG-7RalV-Sknb256kb4-8" target="wkG-7RalV-Sknb256kb4-10">
          <mxGeometry relative="1" as="geometry" />
        </mxCell>
        <mxCell id="wkG-7RalV-Sknb256kb4-8" value="i = 1&lt;div&gt;S = 0&lt;/div&gt;" style="rounded=1;whiteSpace=wrap;html=1;" vertex="1" parent="1">
          <mxGeometry x="365" y="630" width="120" height="60" as="geometry" />
        </mxCell>
        <mxCell id="wkG-7RalV-Sknb256kb4-12" style="edgeStyle=orthogonalEdgeStyle;rounded=0;orthogonalLoop=1;jettySize=auto;html=1;" edge="1" parent="1" source="wkG-7RalV-Sknb256kb4-10" target="wkG-7RalV-Sknb256kb4-11">
          <mxGeometry relative="1" as="geometry" />
        </mxCell>
        <mxCell id="wkG-7RalV-Sknb256kb4-23" style="edgeStyle=orthogonalEdgeStyle;rounded=0;orthogonalLoop=1;jettySize=auto;html=1;" edge="1" parent="1" source="wkG-7RalV-Sknb256kb4-10" target="wkG-7RalV-Sknb256kb4-20">
          <mxGeometry relative="1" as="geometry" />
        </mxCell>
        <mxCell id="wkG-7RalV-Sknb256kb4-10" value="i &amp;lt;=N" style="rhombus;whiteSpace=wrap;html=1;" vertex="1" parent="1">
          <mxGeometry x="373" y="780" width="105" height="120" as="geometry" />
        </mxCell>
        <mxCell id="wkG-7RalV-Sknb256kb4-16" style="edgeStyle=orthogonalEdgeStyle;rounded=0;orthogonalLoop=1;jettySize=auto;html=1;" edge="1" parent="1" source="wkG-7RalV-Sknb256kb4-11" target="wkG-7RalV-Sknb256kb4-10">
          <mxGeometry relative="1" as="geometry">
            <mxPoint x="230" y="840" as="targetPoint" />
            <Array as="points">
              <mxPoint x="231" y="1010" />
              <mxPoint x="231" y="840" />
            </Array>
          </mxGeometry>
        </mxCell>
        <mxCell id="wkG-7RalV-Sknb256kb4-11" value="S = S + i&lt;div&gt;i = i + 1&amp;nbsp;&lt;/div&gt;" style="rounded=1;whiteSpace=wrap;html=1;" vertex="1" parent="1">
          <mxGeometry x="365" y="980" width="120" height="60" as="geometry" />
        </mxCell>
        <mxCell id="wkG-7RalV-Sknb256kb4-22" style="edgeStyle=orthogonalEdgeStyle;rounded=0;orthogonalLoop=1;jettySize=auto;html=1;" edge="1" parent="1" source="wkG-7RalV-Sknb256kb4-20" target="wkG-7RalV-Sknb256kb4-21">
          <mxGeometry relative="1" as="geometry" />
        </mxCell>
        <mxCell id="wkG-7RalV-Sknb256kb4-20" value="In giá trị S" style="shape=parallelogram;perimeter=parallelogramPerimeter;whiteSpace=wrap;html=1;fixedSize=1;" vertex="1" parent="1">
          <mxGeometry x="590" y="810" width="120" height="60" as="geometry" />
        </mxCell>
        <mxCell id="wkG-7RalV-Sknb256kb4-21" value="End" style="ellipse;whiteSpace=wrap;html=1;" vertex="1" parent="1">
          <mxGeometry x="590" y="960" width="120" height="80" as="geometry" />
        </mxCell>
        <mxCell id="wkG-7RalV-Sknb256kb4-24" value="T" style="text;html=1;align=center;verticalAlign=middle;resizable=0;points=[];autosize=1;strokeColor=none;fillColor=none;" vertex="1" parent="1">
          <mxGeometry x="435" y="918" width="30" height="30" as="geometry" />
        </mxCell>
        <mxCell id="wkG-7RalV-Sknb256kb4-25" value="F" style="text;html=1;align=center;verticalAlign=middle;resizable=0;points=[];autosize=1;strokeColor=none;fillColor=none;" vertex="1" parent="1">
          <mxGeometry x="505" y="848" width="30" height="30" as="geometry" />
        </mxCell>
        <mxCell id="wkG-7RalV-Sknb256kb4-26" value="F" style="text;html=1;align=center;verticalAlign=middle;resizable=0;points=[];autosize=1;strokeColor=none;fillColor=none;" vertex="1" parent="1">
          <mxGeometry x="235" y="378" width="30" height="30" as="geometry" />
        </mxCell>
        <mxCell id="wkG-7RalV-Sknb256kb4-27" value="T" style="text;html=1;align=center;verticalAlign=middle;resizable=0;points=[];autosize=1;strokeColor=none;fillColor=none;" vertex="1" parent="1">
          <mxGeometry x="385" y="568" width="30" height="30" as="geometry" />
        </mxCell>
      </root>
    </mxGraphModel>
  </diagram>
  <diagram id="zoZ7MGDC_bSLxKW3Nr_g" name="Page-4">
    <mxGraphModel dx="692" dy="595" grid="1" gridSize="10" guides="1" tooltips="1" connect="1" arrows="1" fold="1" page="1" pageScale="1" pageWidth="850" pageHeight="1100" math="0" shadow="0">
      <root>
        <mxCell id="0" />
        <mxCell id="1" parent="0" />
        <mxCell id="BSLAIWyxhiwL0scpAqur-23" style="edgeStyle=orthogonalEdgeStyle;rounded=0;orthogonalLoop=1;jettySize=auto;html=1;" edge="1" parent="1" source="BSLAIWyxhiwL0scpAqur-2" target="BSLAIWyxhiwL0scpAqur-4">
          <mxGeometry relative="1" as="geometry" />
        </mxCell>
        <mxCell id="BSLAIWyxhiwL0scpAqur-2" value="Start" style="ellipse;whiteSpace=wrap;html=1;" vertex="1" parent="1">
          <mxGeometry x="364.96" y="40" width="120" height="80" as="geometry" />
        </mxCell>
        <mxCell id="BSLAIWyxhiwL0scpAqur-3" style="edgeStyle=orthogonalEdgeStyle;rounded=0;orthogonalLoop=1;jettySize=auto;html=1;" edge="1" parent="1" source="BSLAIWyxhiwL0scpAqur-4" target="BSLAIWyxhiwL0scpAqur-7">
          <mxGeometry relative="1" as="geometry" />
        </mxCell>
        <mxCell id="BSLAIWyxhiwL0scpAqur-4" value="Nhập N" style="shape=parallelogram;perimeter=parallelogramPerimeter;whiteSpace=wrap;html=1;fixedSize=1;" vertex="1" parent="1">
          <mxGeometry x="364.96" y="210" width="120" height="60" as="geometry" />
        </mxCell>
        <mxCell id="BSLAIWyxhiwL0scpAqur-5" style="edgeStyle=orthogonalEdgeStyle;rounded=0;orthogonalLoop=1;jettySize=auto;html=1;" edge="1" parent="1" source="BSLAIWyxhiwL0scpAqur-7" target="BSLAIWyxhiwL0scpAqur-4">
          <mxGeometry relative="1" as="geometry">
            <mxPoint x="219.96" y="240" as="targetPoint" />
            <Array as="points">
              <mxPoint x="259.96" y="420" />
              <mxPoint x="259.96" y="421" />
              <mxPoint x="219.96" y="421" />
              <mxPoint x="219.96" y="240" />
            </Array>
          </mxGeometry>
        </mxCell>
        <mxCell id="BSLAIWyxhiwL0scpAqur-6" style="edgeStyle=orthogonalEdgeStyle;rounded=0;orthogonalLoop=1;jettySize=auto;html=1;" edge="1" parent="1" source="BSLAIWyxhiwL0scpAqur-7" target="BSLAIWyxhiwL0scpAqur-10">
          <mxGeometry relative="1" as="geometry" />
        </mxCell>
        <mxCell id="BSLAIWyxhiwL0scpAqur-7" value="N &amp;gt; 0" style="rhombus;whiteSpace=wrap;html=1;" vertex="1" parent="1">
          <mxGeometry x="372.96" y="360" width="105" height="120" as="geometry" />
        </mxCell>
        <mxCell id="BSLAIWyxhiwL0scpAqur-9" style="edgeStyle=orthogonalEdgeStyle;rounded=0;orthogonalLoop=1;jettySize=auto;html=1;" edge="1" parent="1" source="BSLAIWyxhiwL0scpAqur-10" target="BSLAIWyxhiwL0scpAqur-13">
          <mxGeometry relative="1" as="geometry" />
        </mxCell>
        <mxCell id="BSLAIWyxhiwL0scpAqur-10" value="i = 1&lt;div&gt;S = 0&lt;/div&gt;" style="rounded=1;whiteSpace=wrap;html=1;" vertex="1" parent="1">
          <mxGeometry x="364.96" y="550" width="120" height="60" as="geometry" />
        </mxCell>
        <mxCell id="BSLAIWyxhiwL0scpAqur-11" style="edgeStyle=orthogonalEdgeStyle;rounded=0;orthogonalLoop=1;jettySize=auto;html=1;" edge="1" parent="1" source="BSLAIWyxhiwL0scpAqur-13" target="BSLAIWyxhiwL0scpAqur-15">
          <mxGeometry relative="1" as="geometry" />
        </mxCell>
        <mxCell id="BSLAIWyxhiwL0scpAqur-12" style="edgeStyle=orthogonalEdgeStyle;rounded=0;orthogonalLoop=1;jettySize=auto;html=1;" edge="1" parent="1" source="BSLAIWyxhiwL0scpAqur-13" target="BSLAIWyxhiwL0scpAqur-17">
          <mxGeometry relative="1" as="geometry" />
        </mxCell>
        <mxCell id="BSLAIWyxhiwL0scpAqur-13" value="i &amp;lt;=N" style="rhombus;whiteSpace=wrap;html=1;" vertex="1" parent="1">
          <mxGeometry x="372.96" y="700" width="105" height="120" as="geometry" />
        </mxCell>
        <mxCell id="BSLAIWyxhiwL0scpAqur-14" style="edgeStyle=orthogonalEdgeStyle;rounded=0;orthogonalLoop=1;jettySize=auto;html=1;" edge="1" parent="1" source="BSLAIWyxhiwL0scpAqur-15" target="BSLAIWyxhiwL0scpAqur-13">
          <mxGeometry relative="1" as="geometry">
            <mxPoint x="229.96" y="760" as="targetPoint" />
            <Array as="points">
              <mxPoint x="230.96" y="930" />
              <mxPoint x="230.96" y="760" />
            </Array>
          </mxGeometry>
        </mxCell>
        <mxCell id="BSLAIWyxhiwL0scpAqur-15" value="S = S * i&lt;div&gt;i = i + 1&amp;nbsp;&lt;/div&gt;" style="rounded=1;whiteSpace=wrap;html=1;" vertex="1" parent="1">
          <mxGeometry x="364.96" y="900" width="120" height="60" as="geometry" />
        </mxCell>
        <mxCell id="BSLAIWyxhiwL0scpAqur-16" style="edgeStyle=orthogonalEdgeStyle;rounded=0;orthogonalLoop=1;jettySize=auto;html=1;" edge="1" parent="1" source="BSLAIWyxhiwL0scpAqur-17" target="BSLAIWyxhiwL0scpAqur-18">
          <mxGeometry relative="1" as="geometry" />
        </mxCell>
        <mxCell id="BSLAIWyxhiwL0scpAqur-17" value="In giá trị S" style="shape=parallelogram;perimeter=parallelogramPerimeter;whiteSpace=wrap;html=1;fixedSize=1;" vertex="1" parent="1">
          <mxGeometry x="589.96" y="730" width="120" height="60" as="geometry" />
        </mxCell>
        <mxCell id="BSLAIWyxhiwL0scpAqur-18" value="End" style="ellipse;whiteSpace=wrap;html=1;" vertex="1" parent="1">
          <mxGeometry x="589.96" y="880" width="120" height="80" as="geometry" />
        </mxCell>
        <mxCell id="BSLAIWyxhiwL0scpAqur-19" value="T" style="text;html=1;align=center;verticalAlign=middle;resizable=0;points=[];autosize=1;strokeColor=none;fillColor=none;" vertex="1" parent="1">
          <mxGeometry x="434.96" y="838" width="30" height="30" as="geometry" />
        </mxCell>
        <mxCell id="BSLAIWyxhiwL0scpAqur-20" value="F" style="text;html=1;align=center;verticalAlign=middle;resizable=0;points=[];autosize=1;strokeColor=none;fillColor=none;" vertex="1" parent="1">
          <mxGeometry x="504.96" y="768" width="30" height="30" as="geometry" />
        </mxCell>
        <mxCell id="BSLAIWyxhiwL0scpAqur-21" value="F" style="text;html=1;align=center;verticalAlign=middle;resizable=0;points=[];autosize=1;strokeColor=none;fillColor=none;" vertex="1" parent="1">
          <mxGeometry x="234.96" y="298" width="30" height="30" as="geometry" />
        </mxCell>
        <mxCell id="BSLAIWyxhiwL0scpAqur-22" value="T" style="text;html=1;align=center;verticalAlign=middle;resizable=0;points=[];autosize=1;strokeColor=none;fillColor=none;" vertex="1" parent="1">
          <mxGeometry x="384.96" y="488" width="30" height="30" as="geometry" />
        </mxCell>
      </root>
    </mxGraphModel>
  </diagram>
  <diagram id="vZ8dLGNgaWRNIxoQkFqe" name="Page-5">
    <mxGraphModel dx="865" dy="744" grid="1" gridSize="10" guides="1" tooltips="1" connect="1" arrows="1" fold="1" page="1" pageScale="1" pageWidth="850" pageHeight="1100" math="0" shadow="0">
      <root>
        <mxCell id="0" />
        <mxCell id="1" parent="0" />
        <mxCell id="lku0Qy5qBjnCHazgjwUs-10" style="edgeStyle=orthogonalEdgeStyle;rounded=0;orthogonalLoop=1;jettySize=auto;html=1;" edge="1" parent="1" source="lku0Qy5qBjnCHazgjwUs-1" target="lku0Qy5qBjnCHazgjwUs-3">
          <mxGeometry relative="1" as="geometry" />
        </mxCell>
        <mxCell id="lku0Qy5qBjnCHazgjwUs-1" value="Start" style="ellipse;whiteSpace=wrap;html=1;" vertex="1" parent="1">
          <mxGeometry x="147" y="40" width="120" height="80" as="geometry" />
        </mxCell>
        <mxCell id="lku0Qy5qBjnCHazgjwUs-12" style="edgeStyle=orthogonalEdgeStyle;rounded=0;orthogonalLoop=1;jettySize=auto;html=1;" edge="1" parent="1" source="lku0Qy5qBjnCHazgjwUs-3" target="lku0Qy5qBjnCHazgjwUs-4">
          <mxGeometry relative="1" as="geometry" />
        </mxCell>
        <mxCell id="lku0Qy5qBjnCHazgjwUs-3" value="Nhập a,b,c" style="shape=parallelogram;perimeter=parallelogramPerimeter;whiteSpace=wrap;html=1;fixedSize=1;" vertex="1" parent="1">
          <mxGeometry x="147" y="190" width="120" height="60" as="geometry" />
        </mxCell>
        <mxCell id="lku0Qy5qBjnCHazgjwUs-11" style="edgeStyle=orthogonalEdgeStyle;rounded=0;orthogonalLoop=1;jettySize=auto;html=1;" edge="1" parent="1" source="lku0Qy5qBjnCHazgjwUs-4" target="lku0Qy5qBjnCHazgjwUs-5">
          <mxGeometry relative="1" as="geometry" />
        </mxCell>
        <mxCell id="lku0Qy5qBjnCHazgjwUs-4" value="delta = b^2 - 4*a*c" style="rounded=1;whiteSpace=wrap;html=1;" vertex="1" parent="1">
          <mxGeometry x="147" y="330" width="120" height="60" as="geometry" />
        </mxCell>
        <mxCell id="lku0Qy5qBjnCHazgjwUs-13" style="edgeStyle=orthogonalEdgeStyle;rounded=0;orthogonalLoop=1;jettySize=auto;html=1;" edge="1" parent="1" source="lku0Qy5qBjnCHazgjwUs-5" target="lku0Qy5qBjnCHazgjwUs-6">
          <mxGeometry relative="1" as="geometry" />
        </mxCell>
        <mxCell id="lku0Qy5qBjnCHazgjwUs-14" style="edgeStyle=orthogonalEdgeStyle;rounded=0;orthogonalLoop=1;jettySize=auto;html=1;" edge="1" parent="1" source="lku0Qy5qBjnCHazgjwUs-5" target="lku0Qy5qBjnCHazgjwUs-8">
          <mxGeometry relative="1" as="geometry" />
        </mxCell>
        <mxCell id="lku0Qy5qBjnCHazgjwUs-5" value="Delta &amp;lt; 0&amp;nbsp;" style="rhombus;whiteSpace=wrap;html=1;" vertex="1" parent="1">
          <mxGeometry x="140" y="470" width="135" height="130" as="geometry" />
        </mxCell>
        <mxCell id="lku0Qy5qBjnCHazgjwUs-23" style="edgeStyle=orthogonalEdgeStyle;rounded=0;orthogonalLoop=1;jettySize=auto;html=1;" edge="1" parent="1" source="lku0Qy5qBjnCHazgjwUs-6" target="lku0Qy5qBjnCHazgjwUs-22">
          <mxGeometry relative="1" as="geometry" />
        </mxCell>
        <mxCell id="lku0Qy5qBjnCHazgjwUs-6" value="Vô nghiệm" style="shape=parallelogram;perimeter=parallelogramPerimeter;whiteSpace=wrap;html=1;fixedSize=1;" vertex="1" parent="1">
          <mxGeometry x="147" y="670" width="120" height="60" as="geometry" />
        </mxCell>
        <mxCell id="lku0Qy5qBjnCHazgjwUs-15" style="edgeStyle=orthogonalEdgeStyle;rounded=0;orthogonalLoop=1;jettySize=auto;html=1;" edge="1" parent="1" source="lku0Qy5qBjnCHazgjwUs-8" target="lku0Qy5qBjnCHazgjwUs-9">
          <mxGeometry relative="1" as="geometry" />
        </mxCell>
        <mxCell id="lku0Qy5qBjnCHazgjwUs-20" style="edgeStyle=orthogonalEdgeStyle;rounded=0;orthogonalLoop=1;jettySize=auto;html=1;" edge="1" parent="1" source="lku0Qy5qBjnCHazgjwUs-8" target="lku0Qy5qBjnCHazgjwUs-17">
          <mxGeometry relative="1" as="geometry" />
        </mxCell>
        <mxCell id="lku0Qy5qBjnCHazgjwUs-8" value="Delta = 0&amp;nbsp;" style="rhombus;whiteSpace=wrap;html=1;" vertex="1" parent="1">
          <mxGeometry x="392" y="470" width="135" height="130" as="geometry" />
        </mxCell>
        <mxCell id="lku0Qy5qBjnCHazgjwUs-26" style="edgeStyle=orthogonalEdgeStyle;rounded=0;orthogonalLoop=1;jettySize=auto;html=1;" edge="1" parent="1" source="lku0Qy5qBjnCHazgjwUs-9" target="lku0Qy5qBjnCHazgjwUs-24">
          <mxGeometry relative="1" as="geometry" />
        </mxCell>
        <mxCell id="lku0Qy5qBjnCHazgjwUs-9" value="S = - b / 2*a" style="shape=parallelogram;perimeter=parallelogramPerimeter;whiteSpace=wrap;html=1;fixedSize=1;" vertex="1" parent="1">
          <mxGeometry x="399.5" y="670" width="120" height="60" as="geometry" />
        </mxCell>
        <mxCell id="lku0Qy5qBjnCHazgjwUs-21" style="edgeStyle=orthogonalEdgeStyle;rounded=0;orthogonalLoop=1;jettySize=auto;html=1;" edge="1" parent="1" source="lku0Qy5qBjnCHazgjwUs-17" target="lku0Qy5qBjnCHazgjwUs-18">
          <mxGeometry relative="1" as="geometry" />
        </mxCell>
        <mxCell id="lku0Qy5qBjnCHazgjwUs-17" value="delta &amp;gt; 0" style="rounded=1;whiteSpace=wrap;html=1;" vertex="1" parent="1">
          <mxGeometry x="630" y="505" width="120" height="60" as="geometry" />
        </mxCell>
        <mxCell id="lku0Qy5qBjnCHazgjwUs-27" style="edgeStyle=orthogonalEdgeStyle;rounded=0;orthogonalLoop=1;jettySize=auto;html=1;" edge="1" parent="1" source="lku0Qy5qBjnCHazgjwUs-18" target="lku0Qy5qBjnCHazgjwUs-25">
          <mxGeometry relative="1" as="geometry" />
        </mxCell>
        <mxCell id="lku0Qy5qBjnCHazgjwUs-18" value="S1 = ( -b + sqrt delta ) / 2*a&lt;div&gt;&lt;br&gt;&lt;/div&gt;&lt;div&gt;S2 = ( -b - sqrt delta ) / 2*a&lt;/div&gt;" style="shape=parallelogram;perimeter=parallelogramPerimeter;whiteSpace=wrap;html=1;fixedSize=1;" vertex="1" parent="1">
          <mxGeometry x="547.5" y="630" width="285" height="140" as="geometry" />
        </mxCell>
        <mxCell id="lku0Qy5qBjnCHazgjwUs-22" value="End" style="ellipse;whiteSpace=wrap;html=1;" vertex="1" parent="1">
          <mxGeometry x="147.5" y="800" width="120" height="80" as="geometry" />
        </mxCell>
        <mxCell id="lku0Qy5qBjnCHazgjwUs-24" value="End" style="ellipse;whiteSpace=wrap;html=1;" vertex="1" parent="1">
          <mxGeometry x="399.5" y="800" width="120" height="80" as="geometry" />
        </mxCell>
        <mxCell id="lku0Qy5qBjnCHazgjwUs-25" value="End" style="ellipse;whiteSpace=wrap;html=1;" vertex="1" parent="1">
          <mxGeometry x="630" y="800" width="120" height="80" as="geometry" />
        </mxCell>
        <mxCell id="lku0Qy5qBjnCHazgjwUs-28" value="F" style="text;html=1;align=center;verticalAlign=middle;resizable=0;points=[];autosize=1;strokeColor=none;fillColor=none;" vertex="1" parent="1">
          <mxGeometry x="315" y="538" width="30" height="30" as="geometry" />
        </mxCell>
        <mxCell id="lku0Qy5qBjnCHazgjwUs-29" value="T" style="text;html=1;align=center;verticalAlign=middle;resizable=0;points=[];autosize=1;strokeColor=none;fillColor=none;" vertex="1" parent="1">
          <mxGeometry x="215" y="618" width="30" height="30" as="geometry" />
        </mxCell>
        <mxCell id="lku0Qy5qBjnCHazgjwUs-30" value="F" style="text;html=1;align=center;verticalAlign=middle;resizable=0;points=[];autosize=1;strokeColor=none;fillColor=none;" vertex="1" parent="1">
          <mxGeometry x="557.5" y="538" width="30" height="30" as="geometry" />
        </mxCell>
        <mxCell id="lku0Qy5qBjnCHazgjwUs-31" value="T" style="text;html=1;align=center;verticalAlign=middle;resizable=0;points=[];autosize=1;strokeColor=none;fillColor=none;" vertex="1" parent="1">
          <mxGeometry x="470" y="618" width="30" height="30" as="geometry" />
        </mxCell>
      </root>
    </mxGraphModel>
  </diagram>
</mxfile>
